# xmcd
#
# Track frame offsets: 
#        150
#        7274
#        16486
#        23062
#        34992
#        41959
#        47655
#        56027
#        61699
#        69951
#        76683
#        83866
#        89405
#        94271
#        101135
#        110387
#        116936
#        124423
#        132485
#        143528
#        149924
#        158307
#
# Disc length: 2218 seconds
#
# Revision: 1
# Processed by: cddbd v1.5.2PL0 Copyright (c) Steve Scherf et al.
# Submitted via: ExactAudioCopy v1.3
#
DISCID=3608a816
DTITLE=Speedy West - The Steelguitar Transcriptions of Speedy West
DYEAR=1900
DGENRE=Instrumental
TTITLE0=Two Of A Kind
TTITLE1=At Sundown
TTITLE2=Blue Steel Blues
TTITLE3=Sentimental Journey
TTITLE4=Penhandle Rag
TTITLE5=Tennessee Border
TTITLE6=Missouri Waltz
TTITLE7=Texal Playboy Rag
TTITLE8=I Love You So Musch It Hurts
TTITLE9=Farewell Blues
TTITLE10=Birth Of The Blues
TTITLE11=Honeysuckle Rose
TTITLE12=Dragging The Steel
TTITLE13=How Come You Do Me Like You Do?
TTITLE14=Lover
TTITLE15=Steeling The Blues
TTITLE16=Marie
TTITLE17=Don't Sing Aloha When I Go
TTITLE18=Indian Love Call
TTITLE19=Bye Bye Blues
TTITLE20=Moonlight And Roses
TTITLE21=Kent5ucky Waltz
EXTD=Wesley Webb " Speedy" West\nBronco Buster 9054 Mono CD
EXTT0=
EXTT1=
EXTT2=
EXTT3=
EXTT4=
EXTT5=
EXTT6=
EXTT7=
EXTT8=
EXTT9=
EXTT10=
EXTT11=
EXTT12=
EXTT13=
EXTT14=
EXTT15=
EXTT16=
EXTT17=
EXTT18=
EXTT19=
EXTT20=
EXTT21=
PLAYORDER=
